<mxfile host="app.diagrams.net" agent="Mozilla/5.0 (Windows NT 10.0; Win64; x64) AppleWebKit/537.36 (KHTML, like Gecko) Chrome/122.0.0.0 Safari/537.36 Edg/122.0.0.0" version="24.7.6">
  <diagram name="第 1 页" id="BBgEHPQNoC2N4WVK9qNN">
    <mxGraphModel dx="1574" dy="1437" grid="1" gridSize="10" guides="1" tooltips="1" connect="1" arrows="1" fold="1" page="1" pageScale="1" pageWidth="827" pageHeight="1169" math="0" shadow="0">
      <root>
        <mxCell id="0" />
        <mxCell id="1" parent="0" />
        <mxCell id="mp_TRMHKgCI7BymeRQ6v-56" style="edgeStyle=orthogonalEdgeStyle;rounded=0;orthogonalLoop=1;jettySize=auto;html=1;exitX=1;exitY=0.5;exitDx=0;exitDy=0;entryX=0;entryY=0.5;entryDx=0;entryDy=0;" edge="1" parent="1" source="mp_TRMHKgCI7BymeRQ6v-54" target="mp_TRMHKgCI7BymeRQ6v-53">
          <mxGeometry relative="1" as="geometry" />
        </mxCell>
        <mxCell id="mp_TRMHKgCI7BymeRQ6v-54" value="" style="rounded=0;whiteSpace=wrap;html=1;dashed=1;" vertex="1" parent="1">
          <mxGeometry x="780" y="1296" width="100" height="214" as="geometry" />
        </mxCell>
        <mxCell id="mp_TRMHKgCI7BymeRQ6v-57" style="edgeStyle=orthogonalEdgeStyle;rounded=0;orthogonalLoop=1;jettySize=auto;html=1;exitX=1;exitY=0.5;exitDx=0;exitDy=0;" edge="1" parent="1" source="mp_TRMHKgCI7BymeRQ6v-53">
          <mxGeometry relative="1" as="geometry">
            <mxPoint x="1180" y="1542.8181818181815" as="targetPoint" />
          </mxGeometry>
        </mxCell>
        <mxCell id="mp_TRMHKgCI7BymeRQ6v-53" value="" style="rounded=0;whiteSpace=wrap;html=1;dashed=1;" vertex="1" parent="1">
          <mxGeometry x="970" y="1475" width="80" height="135" as="geometry" />
        </mxCell>
        <mxCell id="mm3s2vX46m0GqBqT8NJF-1" style="edgeStyle=orthogonalEdgeStyle;rounded=0;orthogonalLoop=1;jettySize=auto;html=1;exitX=0.5;exitY=1;exitDx=0;exitDy=0;entryX=0.5;entryY=0;entryDx=0;entryDy=0;" parent="1" source="mm3s2vX46m0GqBqT8NJF-2" target="mm3s2vX46m0GqBqT8NJF-8" edge="1">
          <mxGeometry relative="1" as="geometry" />
        </mxCell>
        <mxCell id="mm3s2vX46m0GqBqT8NJF-2" value="传入cos&lt;div&gt;文档路径list&lt;/div&gt;" style="rounded=0;whiteSpace=wrap;html=1;" parent="1" vertex="1">
          <mxGeometry x="782" y="40" width="120" height="60" as="geometry" />
        </mxCell>
        <mxCell id="mm3s2vX46m0GqBqT8NJF-3" style="edgeStyle=orthogonalEdgeStyle;rounded=0;orthogonalLoop=1;jettySize=auto;html=1;exitX=0.5;exitY=1;exitDx=0;exitDy=0;entryX=0.5;entryY=0;entryDx=0;entryDy=0;" parent="1" source="mm3s2vX46m0GqBqT8NJF-8" target="mm3s2vX46m0GqBqT8NJF-14" edge="1">
          <mxGeometry relative="1" as="geometry" />
        </mxCell>
        <mxCell id="mm3s2vX46m0GqBqT8NJF-4" style="edgeStyle=orthogonalEdgeStyle;rounded=0;orthogonalLoop=1;jettySize=auto;html=1;exitX=0.5;exitY=1;exitDx=0;exitDy=0;entryX=0.5;entryY=0;entryDx=0;entryDy=0;" parent="1" source="mm3s2vX46m0GqBqT8NJF-8" target="mm3s2vX46m0GqBqT8NJF-10" edge="1">
          <mxGeometry relative="1" as="geometry" />
        </mxCell>
        <mxCell id="mm3s2vX46m0GqBqT8NJF-6" style="edgeStyle=orthogonalEdgeStyle;rounded=0;orthogonalLoop=1;jettySize=auto;html=1;exitX=0.5;exitY=1;exitDx=0;exitDy=0;" parent="1" source="mm3s2vX46m0GqBqT8NJF-8" target="mm3s2vX46m0GqBqT8NJF-39" edge="1">
          <mxGeometry relative="1" as="geometry" />
        </mxCell>
        <mxCell id="mm3s2vX46m0GqBqT8NJF-8" value="下载到本地" style="rounded=0;whiteSpace=wrap;html=1;" parent="1" vertex="1">
          <mxGeometry x="782" y="150" width="120" height="60" as="geometry" />
        </mxCell>
        <mxCell id="mm3s2vX46m0GqBqT8NJF-9" style="edgeStyle=orthogonalEdgeStyle;rounded=0;orthogonalLoop=1;jettySize=auto;html=1;exitX=0.5;exitY=1;exitDx=0;exitDy=0;entryX=0.5;entryY=0;entryDx=0;entryDy=0;" parent="1" source="mm3s2vX46m0GqBqT8NJF-10" target="mm3s2vX46m0GqBqT8NJF-59" edge="1">
          <mxGeometry relative="1" as="geometry" />
        </mxCell>
        <mxCell id="mm3s2vX46m0GqBqT8NJF-10" value="txt" style="rounded=0;whiteSpace=wrap;html=1;fillColor=#f5f5f5;fontColor=#333333;strokeColor=#666666;" parent="1" vertex="1">
          <mxGeometry x="533" y="260" width="120" height="60" as="geometry" />
        </mxCell>
        <mxCell id="mm3s2vX46m0GqBqT8NJF-11" style="edgeStyle=orthogonalEdgeStyle;rounded=0;orthogonalLoop=1;jettySize=auto;html=1;exitX=0.5;exitY=1;exitDx=0;exitDy=0;entryX=0.5;entryY=0;entryDx=0;entryDy=0;" parent="1" source="mm3s2vX46m0GqBqT8NJF-12" target="mm3s2vX46m0GqBqT8NJF-57" edge="1">
          <mxGeometry relative="1" as="geometry" />
        </mxCell>
        <mxCell id="mm3s2vX46m0GqBqT8NJF-12" value="docx" style="rounded=0;whiteSpace=wrap;html=1;fillColor=#f5f5f5;fontColor=#333333;strokeColor=#666666;" parent="1" vertex="1">
          <mxGeometry x="703" y="260" width="120" height="60" as="geometry" />
        </mxCell>
        <mxCell id="mm3s2vX46m0GqBqT8NJF-13" style="edgeStyle=orthogonalEdgeStyle;rounded=0;orthogonalLoop=1;jettySize=auto;html=1;exitX=0.5;exitY=1;exitDx=0;exitDy=0;entryX=0.5;entryY=0;entryDx=0;entryDy=0;" parent="1" source="mm3s2vX46m0GqBqT8NJF-14" target="mm3s2vX46m0GqBqT8NJF-75" edge="1">
          <mxGeometry relative="1" as="geometry" />
        </mxCell>
        <mxCell id="mm3s2vX46m0GqBqT8NJF-14" value="pdf" style="rounded=0;whiteSpace=wrap;html=1;fillColor=#f5f5f5;fontColor=#333333;strokeColor=#666666;" parent="1" vertex="1">
          <mxGeometry x="873" y="260" width="120" height="60" as="geometry" />
        </mxCell>
        <mxCell id="mm3s2vX46m0GqBqT8NJF-15" style="edgeStyle=orthogonalEdgeStyle;rounded=0;orthogonalLoop=1;jettySize=auto;html=1;exitX=0.5;exitY=1;exitDx=0;exitDy=0;" parent="1" source="mm3s2vX46m0GqBqT8NJF-16" target="mm3s2vX46m0GqBqT8NJF-50" edge="1">
          <mxGeometry relative="1" as="geometry" />
        </mxCell>
        <mxCell id="mm3s2vX46m0GqBqT8NJF-16" value="html" style="rounded=0;whiteSpace=wrap;html=1;fillColor=#f5f5f5;fontColor=#333333;strokeColor=#666666;" parent="1" vertex="1">
          <mxGeometry x="1045" y="260" width="120" height="60" as="geometry" />
        </mxCell>
        <mxCell id="mm3s2vX46m0GqBqT8NJF-17" style="edgeStyle=orthogonalEdgeStyle;rounded=0;orthogonalLoop=1;jettySize=auto;html=1;exitX=0.5;exitY=1;exitDx=0;exitDy=0;entryX=0.558;entryY=0.033;entryDx=0;entryDy=0;entryPerimeter=0;" parent="1" source="mm3s2vX46m0GqBqT8NJF-8" target="mm3s2vX46m0GqBqT8NJF-12" edge="1">
          <mxGeometry relative="1" as="geometry" />
        </mxCell>
        <mxCell id="mm3s2vX46m0GqBqT8NJF-18" style="edgeStyle=orthogonalEdgeStyle;rounded=0;orthogonalLoop=1;jettySize=auto;html=1;exitX=0.5;exitY=1;exitDx=0;exitDy=0;entryX=0.465;entryY=0.041;entryDx=0;entryDy=0;entryPerimeter=0;" parent="1" source="mm3s2vX46m0GqBqT8NJF-8" target="mm3s2vX46m0GqBqT8NJF-16" edge="1">
          <mxGeometry relative="1" as="geometry" />
        </mxCell>
        <mxCell id="mm3s2vX46m0GqBqT8NJF-38" style="edgeStyle=orthogonalEdgeStyle;rounded=0;orthogonalLoop=1;jettySize=auto;html=1;exitX=0.5;exitY=1;exitDx=0;exitDy=0;entryX=0.5;entryY=0;entryDx=0;entryDy=0;" parent="1" source="mm3s2vX46m0GqBqT8NJF-39" target="mm3s2vX46m0GqBqT8NJF-54" edge="1">
          <mxGeometry relative="1" as="geometry" />
        </mxCell>
        <mxCell id="mm3s2vX46m0GqBqT8NJF-39" value="excel" style="rounded=0;whiteSpace=wrap;html=1;fillColor=#f5f5f5;fontColor=#333333;strokeColor=#666666;" parent="1" vertex="1">
          <mxGeometry x="359" y="260" width="120" height="60" as="geometry" />
        </mxCell>
        <mxCell id="mm3s2vX46m0GqBqT8NJF-44" style="edgeStyle=orthogonalEdgeStyle;rounded=0;orthogonalLoop=1;jettySize=auto;html=1;exitX=0;exitY=0.5;exitDx=0;exitDy=0;" parent="1" source="mm3s2vX46m0GqBqT8NJF-48" edge="1">
          <mxGeometry relative="1" as="geometry">
            <mxPoint x="280" y="503.1052631578948" as="targetPoint" />
          </mxGeometry>
        </mxCell>
        <mxCell id="mm3s2vX46m0GqBqT8NJF-45" value="是" style="edgeLabel;html=1;align=center;verticalAlign=middle;resizable=0;points=[];" parent="mm3s2vX46m0GqBqT8NJF-44" vertex="1" connectable="0">
          <mxGeometry x="-0.3102" relative="1" as="geometry">
            <mxPoint as="offset" />
          </mxGeometry>
        </mxCell>
        <mxCell id="mm3s2vX46m0GqBqT8NJF-93" style="edgeStyle=orthogonalEdgeStyle;rounded=0;orthogonalLoop=1;jettySize=auto;html=1;exitX=0.5;exitY=1;exitDx=0;exitDy=0;entryX=0.5;entryY=0;entryDx=0;entryDy=0;" parent="1" source="mm3s2vX46m0GqBqT8NJF-48" target="mm3s2vX46m0GqBqT8NJF-92" edge="1">
          <mxGeometry relative="1" as="geometry" />
        </mxCell>
        <mxCell id="mm3s2vX46m0GqBqT8NJF-98" value="否" style="edgeLabel;html=1;align=center;verticalAlign=middle;resizable=0;points=[];" parent="mm3s2vX46m0GqBqT8NJF-93" vertex="1" connectable="0">
          <mxGeometry x="-0.0795" y="-1" relative="1" as="geometry">
            <mxPoint as="offset" />
          </mxGeometry>
        </mxCell>
        <mxCell id="mm3s2vX46m0GqBqT8NJF-48" value="判断是否是QA对" style="rhombus;whiteSpace=wrap;html=1;fillColor=#d5e8d4;strokeColor=#82b366;" parent="1" vertex="1">
          <mxGeometry x="350.5" y="463" width="137" height="80" as="geometry" />
        </mxCell>
        <mxCell id="mm3s2vX46m0GqBqT8NJF-106" style="edgeStyle=orthogonalEdgeStyle;rounded=0;orthogonalLoop=1;jettySize=auto;html=1;exitX=0.5;exitY=1;exitDx=0;exitDy=0;entryX=0.5;entryY=0;entryDx=0;entryDy=0;" parent="1" source="mm3s2vX46m0GqBqT8NJF-50" target="mm3s2vX46m0GqBqT8NJF-103" edge="1">
          <mxGeometry relative="1" as="geometry">
            <Array as="points">
              <mxPoint x="1105" y="480" />
              <mxPoint x="842" y="480" />
            </Array>
          </mxGeometry>
        </mxCell>
        <mxCell id="mm3s2vX46m0GqBqT8NJF-50" value="html解析" style="rounded=0;whiteSpace=wrap;html=1;fillColor=#fff2cc;strokeColor=#d6b656;" parent="1" vertex="1">
          <mxGeometry x="1045" y="360" width="120" height="60" as="geometry" />
        </mxCell>
        <mxCell id="mm3s2vX46m0GqBqT8NJF-53" style="edgeStyle=orthogonalEdgeStyle;rounded=0;orthogonalLoop=1;jettySize=auto;html=1;exitX=0.5;exitY=1;exitDx=0;exitDy=0;" parent="1" source="mm3s2vX46m0GqBqT8NJF-54" edge="1">
          <mxGeometry relative="1" as="geometry">
            <mxPoint x="418.63157894736855" y="460" as="targetPoint" />
          </mxGeometry>
        </mxCell>
        <mxCell id="mm3s2vX46m0GqBqT8NJF-54" value="excel解析" style="rounded=0;whiteSpace=wrap;html=1;fillColor=#fff2cc;strokeColor=#d6b656;" parent="1" vertex="1">
          <mxGeometry x="359" y="360" width="120" height="60" as="geometry" />
        </mxCell>
        <mxCell id="mm3s2vX46m0GqBqT8NJF-55" value="输出QA对切片" style="shape=document;whiteSpace=wrap;html=1;boundedLbl=1;fillColor=#e1d5e7;strokeColor=#9673a6;" parent="1" vertex="1">
          <mxGeometry x="160" y="470" width="120" height="80" as="geometry" />
        </mxCell>
        <mxCell id="mm3s2vX46m0GqBqT8NJF-104" style="edgeStyle=orthogonalEdgeStyle;rounded=0;orthogonalLoop=1;jettySize=auto;html=1;exitX=0.5;exitY=1;exitDx=0;exitDy=0;entryX=0.5;entryY=0;entryDx=0;entryDy=0;" parent="1" source="mm3s2vX46m0GqBqT8NJF-57" target="mm3s2vX46m0GqBqT8NJF-103" edge="1">
          <mxGeometry relative="1" as="geometry" />
        </mxCell>
        <mxCell id="mm3s2vX46m0GqBqT8NJF-57" value="docx解析" style="rounded=0;whiteSpace=wrap;html=1;fillColor=#fff2cc;strokeColor=#d6b656;" parent="1" vertex="1">
          <mxGeometry x="703" y="360" width="120" height="60" as="geometry" />
        </mxCell>
        <mxCell id="mm3s2vX46m0GqBqT8NJF-102" style="edgeStyle=orthogonalEdgeStyle;rounded=0;orthogonalLoop=1;jettySize=auto;html=1;exitX=0.5;exitY=1;exitDx=0;exitDy=0;entryX=0.5;entryY=0;entryDx=0;entryDy=0;" parent="1" source="mm3s2vX46m0GqBqT8NJF-59" target="mm3s2vX46m0GqBqT8NJF-103" edge="1">
          <mxGeometry relative="1" as="geometry">
            <mxPoint x="840" y="530" as="targetPoint" />
          </mxGeometry>
        </mxCell>
        <mxCell id="mm3s2vX46m0GqBqT8NJF-59" value="txt解析" style="rounded=0;whiteSpace=wrap;html=1;fillColor=#fff2cc;strokeColor=#d6b656;" parent="1" vertex="1">
          <mxGeometry x="533" y="360" width="120" height="60" as="geometry" />
        </mxCell>
        <mxCell id="mm3s2vX46m0GqBqT8NJF-111" style="edgeStyle=orthogonalEdgeStyle;rounded=0;orthogonalLoop=1;jettySize=auto;html=1;exitX=0.5;exitY=1;exitDx=0;exitDy=0;entryX=0.5;entryY=0;entryDx=0;entryDy=0;" parent="1" source="mm3s2vX46m0GqBqT8NJF-63" target="mm3s2vX46m0GqBqT8NJF-71" edge="1">
          <mxGeometry relative="1" as="geometry" />
        </mxCell>
        <mxCell id="mm3s2vX46m0GqBqT8NJF-63" value="智能切片" style="rounded=0;whiteSpace=wrap;html=1;fillColor=#dae8fc;strokeColor=#6c8ebf;" parent="1" vertex="1">
          <mxGeometry x="624.5" y="680" width="120" height="60" as="geometry" />
        </mxCell>
        <mxCell id="mm3s2vX46m0GqBqT8NJF-112" style="edgeStyle=orthogonalEdgeStyle;rounded=0;orthogonalLoop=1;jettySize=auto;html=1;exitX=0.5;exitY=1;exitDx=0;exitDy=0;" parent="1" source="mm3s2vX46m0GqBqT8NJF-70" edge="1">
          <mxGeometry relative="1" as="geometry">
            <mxPoint x="841.8421052631579" y="810" as="targetPoint" />
          </mxGeometry>
        </mxCell>
        <mxCell id="mm3s2vX46m0GqBqT8NJF-70" value="长度切片" style="rounded=0;whiteSpace=wrap;html=1;fillColor=#dae8fc;strokeColor=#6c8ebf;" parent="1" vertex="1">
          <mxGeometry x="782" y="680" width="120" height="60" as="geometry" />
        </mxCell>
        <mxCell id="mm3s2vX46m0GqBqT8NJF-71" value="输出文档切片" style="shape=document;whiteSpace=wrap;html=1;boundedLbl=1;fillColor=#e1d5e7;strokeColor=#9673a6;" parent="1" vertex="1">
          <mxGeometry x="782" y="810" width="120" height="80" as="geometry" />
        </mxCell>
        <mxCell id="mm3s2vX46m0GqBqT8NJF-107" style="edgeStyle=orthogonalEdgeStyle;rounded=0;orthogonalLoop=1;jettySize=auto;html=1;exitX=0.5;exitY=1;exitDx=0;exitDy=0;entryX=0.5;entryY=0;entryDx=0;entryDy=0;" parent="1" source="mm3s2vX46m0GqBqT8NJF-75" target="mm3s2vX46m0GqBqT8NJF-103" edge="1">
          <mxGeometry relative="1" as="geometry" />
        </mxCell>
        <mxCell id="mm3s2vX46m0GqBqT8NJF-75" value="pdf解析" style="rounded=0;whiteSpace=wrap;html=1;fillColor=#fff2cc;strokeColor=#d6b656;" parent="1" vertex="1">
          <mxGeometry x="873" y="360" width="120" height="60" as="geometry" />
        </mxCell>
        <mxCell id="mm3s2vX46m0GqBqT8NJF-113" style="edgeStyle=orthogonalEdgeStyle;rounded=0;orthogonalLoop=1;jettySize=auto;html=1;exitX=0.5;exitY=1;exitDx=0;exitDy=0;entryX=0.5;entryY=0;entryDx=0;entryDy=0;" parent="1" source="mm3s2vX46m0GqBqT8NJF-90" target="mm3s2vX46m0GqBqT8NJF-71" edge="1">
          <mxGeometry relative="1" as="geometry" />
        </mxCell>
        <mxCell id="mm3s2vX46m0GqBqT8NJF-90" value="目录切片" style="rounded=0;whiteSpace=wrap;html=1;fillColor=#dae8fc;strokeColor=#6c8ebf;" parent="1" vertex="1">
          <mxGeometry x="939.5" y="680" width="120" height="60" as="geometry" />
        </mxCell>
        <mxCell id="mm3s2vX46m0GqBqT8NJF-97" style="edgeStyle=orthogonalEdgeStyle;rounded=0;orthogonalLoop=1;jettySize=auto;html=1;exitX=0.5;exitY=1;exitDx=0;exitDy=0;" parent="1" source="mm3s2vX46m0GqBqT8NJF-92" edge="1">
          <mxGeometry relative="1" as="geometry">
            <mxPoint x="419" y="740" as="targetPoint" />
          </mxGeometry>
        </mxCell>
        <mxCell id="mm3s2vX46m0GqBqT8NJF-99" value="否" style="edgeLabel;html=1;align=center;verticalAlign=middle;resizable=0;points=[];" parent="mm3s2vX46m0GqBqT8NJF-97" vertex="1" connectable="0">
          <mxGeometry x="0.1236" y="1" relative="1" as="geometry">
            <mxPoint as="offset" />
          </mxGeometry>
        </mxCell>
        <mxCell id="mm3s2vX46m0GqBqT8NJF-92" value="判断是否是远银模板" style="rhombus;whiteSpace=wrap;html=1;fillColor=#d5e8d4;strokeColor=#82b366;" parent="1" vertex="1">
          <mxGeometry x="350.5" y="600" width="137" height="80" as="geometry" />
        </mxCell>
        <mxCell id="mm3s2vX46m0GqBqT8NJF-94" value="按格式输出切片" style="shape=document;whiteSpace=wrap;html=1;boundedLbl=1;fillColor=#e1d5e7;strokeColor=#9673a6;" parent="1" vertex="1">
          <mxGeometry x="160" y="610" width="120" height="80" as="geometry" />
        </mxCell>
        <mxCell id="mm3s2vX46m0GqBqT8NJF-95" style="edgeStyle=orthogonalEdgeStyle;rounded=0;orthogonalLoop=1;jettySize=auto;html=1;exitX=0;exitY=0.5;exitDx=0;exitDy=0;entryX=0.991;entryY=0.379;entryDx=0;entryDy=0;entryPerimeter=0;" parent="1" source="mm3s2vX46m0GqBqT8NJF-92" target="mm3s2vX46m0GqBqT8NJF-94" edge="1">
          <mxGeometry relative="1" as="geometry" />
        </mxCell>
        <mxCell id="mm3s2vX46m0GqBqT8NJF-96" value="是" style="edgeLabel;html=1;align=center;verticalAlign=middle;resizable=0;points=[];" parent="mm3s2vX46m0GqBqT8NJF-95" vertex="1" connectable="0">
          <mxGeometry x="-0.0556" y="2" relative="1" as="geometry">
            <mxPoint x="1" as="offset" />
          </mxGeometry>
        </mxCell>
        <mxCell id="mm3s2vX46m0GqBqT8NJF-101" value="暂不解析" style="rounded=0;whiteSpace=wrap;html=1;" parent="1" vertex="1">
          <mxGeometry x="359" y="740" width="120" height="60" as="geometry" />
        </mxCell>
        <mxCell id="mm3s2vX46m0GqBqT8NJF-108" style="edgeStyle=orthogonalEdgeStyle;rounded=0;orthogonalLoop=1;jettySize=auto;html=1;exitX=0.5;exitY=1;exitDx=0;exitDy=0;entryX=0.5;entryY=0;entryDx=0;entryDy=0;" parent="1" source="mm3s2vX46m0GqBqT8NJF-103" target="mm3s2vX46m0GqBqT8NJF-63" edge="1">
          <mxGeometry relative="1" as="geometry" />
        </mxCell>
        <mxCell id="mm3s2vX46m0GqBqT8NJF-109" style="edgeStyle=orthogonalEdgeStyle;rounded=0;orthogonalLoop=1;jettySize=auto;html=1;exitX=0.5;exitY=1;exitDx=0;exitDy=0;entryX=0.5;entryY=0;entryDx=0;entryDy=0;" parent="1" source="mm3s2vX46m0GqBqT8NJF-103" target="mm3s2vX46m0GqBqT8NJF-70" edge="1">
          <mxGeometry relative="1" as="geometry" />
        </mxCell>
        <mxCell id="mm3s2vX46m0GqBqT8NJF-110" style="edgeStyle=orthogonalEdgeStyle;rounded=0;orthogonalLoop=1;jettySize=auto;html=1;exitX=0.5;exitY=1;exitDx=0;exitDy=0;entryX=0.5;entryY=0;entryDx=0;entryDy=0;" parent="1" source="mm3s2vX46m0GqBqT8NJF-103" target="mm3s2vX46m0GqBqT8NJF-90" edge="1">
          <mxGeometry relative="1" as="geometry" />
        </mxCell>
        <mxCell id="mm3s2vX46m0GqBqT8NJF-103" value="解析结果" style="rounded=0;whiteSpace=wrap;html=1;" parent="1" vertex="1">
          <mxGeometry x="782" y="540" width="120" height="60" as="geometry" />
        </mxCell>
        <mxCell id="mp_TRMHKgCI7BymeRQ6v-1" value="用户" style="rounded=0;whiteSpace=wrap;html=1;" vertex="1" parent="1">
          <mxGeometry x="270" y="990" width="120" height="60" as="geometry" />
        </mxCell>
        <mxCell id="mp_TRMHKgCI7BymeRQ6v-2" value="系统" style="rounded=0;whiteSpace=wrap;html=1;" vertex="1" parent="1">
          <mxGeometry x="433" y="990" width="120" height="60" as="geometry" />
        </mxCell>
        <mxCell id="mp_TRMHKgCI7BymeRQ6v-3" value="文档解析模块" style="rounded=0;whiteSpace=wrap;html=1;" vertex="1" parent="1">
          <mxGeometry x="770" y="990" width="120" height="60" as="geometry" />
        </mxCell>
        <mxCell id="mp_TRMHKgCI7BymeRQ6v-4" value="文档切分模块" style="rounded=0;whiteSpace=wrap;html=1;" vertex="1" parent="1">
          <mxGeometry x="950" y="990" width="120" height="60" as="geometry" />
        </mxCell>
        <mxCell id="mp_TRMHKgCI7BymeRQ6v-5" value="QA对解析模块" style="rounded=0;whiteSpace=wrap;html=1;" vertex="1" parent="1">
          <mxGeometry x="600" y="990" width="120" height="60" as="geometry" />
        </mxCell>
        <mxCell id="mp_TRMHKgCI7BymeRQ6v-6" value="输出" style="rounded=0;whiteSpace=wrap;html=1;" vertex="1" parent="1">
          <mxGeometry x="1130" y="990" width="120" height="60" as="geometry" />
        </mxCell>
        <mxCell id="mp_TRMHKgCI7BymeRQ6v-8" value="" style="endArrow=none;dashed=1;html=1;rounded=0;" edge="1" parent="1">
          <mxGeometry width="50" height="50" relative="1" as="geometry">
            <mxPoint x="329" y="1580" as="sourcePoint" />
            <mxPoint x="329.38" y="1050" as="targetPoint" />
          </mxGeometry>
        </mxCell>
        <mxCell id="mp_TRMHKgCI7BymeRQ6v-9" value="" style="endArrow=none;dashed=1;html=1;rounded=0;" edge="1" parent="1" source="mp_TRMHKgCI7BymeRQ6v-15">
          <mxGeometry width="50" height="50" relative="1" as="geometry">
            <mxPoint x="492.38" y="1580" as="sourcePoint" />
            <mxPoint x="492.76" y="1050" as="targetPoint" />
          </mxGeometry>
        </mxCell>
        <mxCell id="mp_TRMHKgCI7BymeRQ6v-10" value="" style="endArrow=none;dashed=1;html=1;rounded=0;" edge="1" parent="1">
          <mxGeometry width="50" height="50" relative="1" as="geometry">
            <mxPoint x="659.63" y="1580" as="sourcePoint" />
            <mxPoint x="660.01" y="1050" as="targetPoint" />
          </mxGeometry>
        </mxCell>
        <mxCell id="mp_TRMHKgCI7BymeRQ6v-11" value="" style="endArrow=none;dashed=1;html=1;rounded=0;" edge="1" parent="1" source="mp_TRMHKgCI7BymeRQ6v-30">
          <mxGeometry width="50" height="50" relative="1" as="geometry">
            <mxPoint x="829.37" y="1580" as="sourcePoint" />
            <mxPoint x="829.75" y="1050" as="targetPoint" />
          </mxGeometry>
        </mxCell>
        <mxCell id="mp_TRMHKgCI7BymeRQ6v-12" value="" style="endArrow=none;dashed=1;html=1;rounded=0;" edge="1" parent="1" source="mp_TRMHKgCI7BymeRQ6v-45">
          <mxGeometry width="50" height="50" relative="1" as="geometry">
            <mxPoint x="1009.38" y="1580" as="sourcePoint" />
            <mxPoint x="1009.76" y="1050" as="targetPoint" />
          </mxGeometry>
        </mxCell>
        <mxCell id="mp_TRMHKgCI7BymeRQ6v-13" value="" style="endArrow=none;dashed=1;html=1;rounded=0;" edge="1" parent="1">
          <mxGeometry width="50" height="50" relative="1" as="geometry">
            <mxPoint x="1189.3799999999999" y="1580" as="sourcePoint" />
            <mxPoint x="1189.76" y="1050" as="targetPoint" />
          </mxGeometry>
        </mxCell>
        <mxCell id="mp_TRMHKgCI7BymeRQ6v-17" style="edgeStyle=orthogonalEdgeStyle;rounded=0;orthogonalLoop=1;jettySize=auto;html=1;exitX=1;exitY=0.5;exitDx=0;exitDy=0;entryX=0;entryY=0.5;entryDx=0;entryDy=0;" edge="1" parent="1" source="mp_TRMHKgCI7BymeRQ6v-14" target="mp_TRMHKgCI7BymeRQ6v-15">
          <mxGeometry relative="1" as="geometry" />
        </mxCell>
        <mxCell id="mp_TRMHKgCI7BymeRQ6v-14" value="文件地址" style="rounded=0;whiteSpace=wrap;html=1;" vertex="1" parent="1">
          <mxGeometry x="300" y="1100" width="60" height="60" as="geometry" />
        </mxCell>
        <mxCell id="mp_TRMHKgCI7BymeRQ6v-16" value="" style="endArrow=none;dashed=1;html=1;rounded=0;" edge="1" parent="1" target="mp_TRMHKgCI7BymeRQ6v-15">
          <mxGeometry width="50" height="50" relative="1" as="geometry">
            <mxPoint x="492.38" y="1580" as="sourcePoint" />
            <mxPoint x="492.76" y="1050" as="targetPoint" />
          </mxGeometry>
        </mxCell>
        <mxCell id="mp_TRMHKgCI7BymeRQ6v-25" style="edgeStyle=orthogonalEdgeStyle;rounded=0;orthogonalLoop=1;jettySize=auto;html=1;exitX=1;exitY=0.5;exitDx=0;exitDy=0;entryX=0;entryY=0.5;entryDx=0;entryDy=0;" edge="1" parent="1" source="mp_TRMHKgCI7BymeRQ6v-15" target="mp_TRMHKgCI7BymeRQ6v-23">
          <mxGeometry relative="1" as="geometry">
            <Array as="points">
              <mxPoint x="570" y="1130" />
              <mxPoint x="570" y="1199" />
            </Array>
          </mxGeometry>
        </mxCell>
        <mxCell id="mp_TRMHKgCI7BymeRQ6v-55" style="edgeStyle=orthogonalEdgeStyle;rounded=0;orthogonalLoop=1;jettySize=auto;html=1;exitX=1;exitY=0.5;exitDx=0;exitDy=0;entryX=0;entryY=0.5;entryDx=0;entryDy=0;" edge="1" parent="1" source="mp_TRMHKgCI7BymeRQ6v-15" target="mp_TRMHKgCI7BymeRQ6v-54">
          <mxGeometry relative="1" as="geometry">
            <Array as="points">
              <mxPoint x="570" y="1130" />
              <mxPoint x="570" y="1403" />
            </Array>
          </mxGeometry>
        </mxCell>
        <mxCell id="mp_TRMHKgCI7BymeRQ6v-58" style="edgeStyle=orthogonalEdgeStyle;rounded=0;orthogonalLoop=1;jettySize=auto;html=1;exitX=1;exitY=0.5;exitDx=0;exitDy=0;entryX=0;entryY=0.5;entryDx=0;entryDy=0;" edge="1" parent="1" source="mp_TRMHKgCI7BymeRQ6v-15" target="mp_TRMHKgCI7BymeRQ6v-27">
          <mxGeometry relative="1" as="geometry">
            <Array as="points">
              <mxPoint x="570" y="1130" />
              <mxPoint x="570" y="1261" />
            </Array>
          </mxGeometry>
        </mxCell>
        <mxCell id="mp_TRMHKgCI7BymeRQ6v-15" value="下载" style="rounded=0;whiteSpace=wrap;html=1;" vertex="1" parent="1">
          <mxGeometry x="463" y="1100" width="60" height="60" as="geometry" />
        </mxCell>
        <mxCell id="mp_TRMHKgCI7BymeRQ6v-26" style="edgeStyle=orthogonalEdgeStyle;rounded=0;orthogonalLoop=1;jettySize=auto;html=1;exitX=1;exitY=0.5;exitDx=0;exitDy=0;" edge="1" parent="1" source="mp_TRMHKgCI7BymeRQ6v-23">
          <mxGeometry relative="1" as="geometry">
            <mxPoint x="1180" y="1199" as="targetPoint" />
          </mxGeometry>
        </mxCell>
        <mxCell id="mp_TRMHKgCI7BymeRQ6v-23" value="解析QA对" style="rounded=0;whiteSpace=wrap;html=1;" vertex="1" parent="1">
          <mxGeometry x="630" y="1169" width="60" height="60" as="geometry" />
        </mxCell>
        <mxCell id="mp_TRMHKgCI7BymeRQ6v-29" style="edgeStyle=orthogonalEdgeStyle;rounded=0;orthogonalLoop=1;jettySize=auto;html=1;exitX=1;exitY=0.5;exitDx=0;exitDy=0;" edge="1" parent="1" source="mp_TRMHKgCI7BymeRQ6v-27">
          <mxGeometry relative="1" as="geometry">
            <mxPoint x="1180" y="1260" as="targetPoint" />
          </mxGeometry>
        </mxCell>
        <mxCell id="mp_TRMHKgCI7BymeRQ6v-27" value="解析Excel" style="rounded=0;whiteSpace=wrap;html=1;" vertex="1" parent="1">
          <mxGeometry x="800" y="1246" width="60" height="30" as="geometry" />
        </mxCell>
        <mxCell id="mp_TRMHKgCI7BymeRQ6v-31" value="" style="endArrow=none;dashed=1;html=1;rounded=0;" edge="1" parent="1" source="mp_TRMHKgCI7BymeRQ6v-32" target="mp_TRMHKgCI7BymeRQ6v-30">
          <mxGeometry width="50" height="50" relative="1" as="geometry">
            <mxPoint x="829.37" y="1596" as="sourcePoint" />
            <mxPoint x="829.75" y="1066" as="targetPoint" />
          </mxGeometry>
        </mxCell>
        <mxCell id="mp_TRMHKgCI7BymeRQ6v-30" value="解析txt" style="rounded=0;whiteSpace=wrap;html=1;" vertex="1" parent="1">
          <mxGeometry x="800" y="1306" width="60" height="30" as="geometry" />
        </mxCell>
        <mxCell id="mp_TRMHKgCI7BymeRQ6v-33" value="" style="endArrow=none;dashed=1;html=1;rounded=0;" edge="1" parent="1" source="mp_TRMHKgCI7BymeRQ6v-34" target="mp_TRMHKgCI7BymeRQ6v-32">
          <mxGeometry width="50" height="50" relative="1" as="geometry">
            <mxPoint x="829.37" y="1596" as="sourcePoint" />
            <mxPoint x="830" y="1336" as="targetPoint" />
          </mxGeometry>
        </mxCell>
        <mxCell id="mp_TRMHKgCI7BymeRQ6v-32" value="解析pdf" style="rounded=0;whiteSpace=wrap;html=1;" vertex="1" parent="1">
          <mxGeometry x="800" y="1346" width="60" height="30" as="geometry" />
        </mxCell>
        <mxCell id="mp_TRMHKgCI7BymeRQ6v-35" value="" style="endArrow=none;dashed=1;html=1;rounded=0;" edge="1" parent="1" source="mp_TRMHKgCI7BymeRQ6v-37" target="mp_TRMHKgCI7BymeRQ6v-34">
          <mxGeometry width="50" height="50" relative="1" as="geometry">
            <mxPoint x="829.37" y="1596" as="sourcePoint" />
            <mxPoint x="830" y="1376" as="targetPoint" />
          </mxGeometry>
        </mxCell>
        <mxCell id="mp_TRMHKgCI7BymeRQ6v-34" value="解析docx" style="rounded=0;whiteSpace=wrap;html=1;" vertex="1" parent="1">
          <mxGeometry x="800" y="1386" width="60" height="30" as="geometry" />
        </mxCell>
        <mxCell id="mp_TRMHKgCI7BymeRQ6v-36" value="解析pdf" style="rounded=0;whiteSpace=wrap;html=1;" vertex="1" parent="1">
          <mxGeometry x="800" y="1426" width="60" height="30" as="geometry" />
        </mxCell>
        <mxCell id="mp_TRMHKgCI7BymeRQ6v-38" value="" style="endArrow=none;dashed=1;html=1;rounded=0;" edge="1" parent="1" target="mp_TRMHKgCI7BymeRQ6v-37">
          <mxGeometry width="50" height="50" relative="1" as="geometry">
            <mxPoint x="829.37" y="1580" as="sourcePoint" />
            <mxPoint x="830" y="1400" as="targetPoint" />
          </mxGeometry>
        </mxCell>
        <mxCell id="mp_TRMHKgCI7BymeRQ6v-37" value="解析html" style="rounded=0;whiteSpace=wrap;html=1;" vertex="1" parent="1">
          <mxGeometry x="800" y="1466" width="60" height="30" as="geometry" />
        </mxCell>
        <mxCell id="mp_TRMHKgCI7BymeRQ6v-46" value="" style="endArrow=none;dashed=1;html=1;rounded=0;" edge="1" parent="1" source="mp_TRMHKgCI7BymeRQ6v-47" target="mp_TRMHKgCI7BymeRQ6v-45">
          <mxGeometry width="50" height="50" relative="1" as="geometry">
            <mxPoint x="1009.38" y="1580" as="sourcePoint" />
            <mxPoint x="1009.76" y="1050" as="targetPoint" />
          </mxGeometry>
        </mxCell>
        <mxCell id="mp_TRMHKgCI7BymeRQ6v-45" value="智能切片" style="rounded=0;whiteSpace=wrap;html=1;" vertex="1" parent="1">
          <mxGeometry x="980" y="1490" width="60" height="30" as="geometry" />
        </mxCell>
        <mxCell id="mp_TRMHKgCI7BymeRQ6v-48" value="" style="endArrow=none;dashed=1;html=1;rounded=0;" edge="1" parent="1" target="mp_TRMHKgCI7BymeRQ6v-47">
          <mxGeometry width="50" height="50" relative="1" as="geometry">
            <mxPoint x="1009.38" y="1580" as="sourcePoint" />
            <mxPoint x="1010" y="1520" as="targetPoint" />
          </mxGeometry>
        </mxCell>
        <mxCell id="mp_TRMHKgCI7BymeRQ6v-47" value="长度切片" style="rounded=0;whiteSpace=wrap;html=1;" vertex="1" parent="1">
          <mxGeometry x="980" y="1530" width="60" height="30" as="geometry" />
        </mxCell>
        <mxCell id="mp_TRMHKgCI7BymeRQ6v-49" value="目录切片" style="rounded=0;whiteSpace=wrap;html=1;" vertex="1" parent="1">
          <mxGeometry x="980" y="1570" width="60" height="30" as="geometry" />
        </mxCell>
      </root>
    </mxGraphModel>
  </diagram>
</mxfile>
